<svg width="18" height="18" viewBox="0 0 18 18" fill="none" xmlns="http://www.w3.org/2000/svg">
<path fill-rule="evenodd" clip-rule="evenodd" d="M3.17932 7.79352C3.19013 4.61308 5.77714 2.04358 8.95758 2.05436C12.138 2.06519 14.7075 4.65221 14.6967 7.83265V7.89787C14.6576 9.96526 13.5032 11.8761 12.088 13.3696C11.2787 14.2101 10.3748 14.9541 9.39454 15.587C9.13242 15.8137 8.74362 15.8137 8.4815 15.587C7.02012 14.6358 5.73752 13.4349 4.69236 12.0392C3.76083 10.8221 3.23195 9.34484 3.17932 7.81308V7.79352Z" stroke="#008ECC" stroke-linecap="round" stroke-linejoin="round"/>
<path d="M8.93806 9.75002C9.95739 9.75002 10.7837 8.92369 10.7837 7.90437C10.7837 6.88504 9.95739 6.05872 8.93806 6.05872C7.91873 6.05872 7.09241 6.88504 7.09241 7.90437C7.09241 8.92369 7.91873 9.75002 8.93806 9.75002Z" stroke="#008ECC" stroke-linecap="round" stroke-linejoin="round"/>
</svg>
